<?xml version="1.0" standalone="no"?>
<!DOCTYPE svg PUBLIC "-//W3C//DTD SVG 20010904//EN"
 "http://www.w3.org/TR/2001/REC-SVG-20010904/DTD/svg10.dtd">
<svg version="1.0" xmlns="http://www.w3.org/2000/svg"
 width="454.000000pt" height="454.000000pt" viewBox="0 0 454.000000 454.000000"
 preserveAspectRatio="xMidYMid meet">
<metadata>
Created by potrace 1.11, written by Peter Selinger 2001-2013
</metadata>
<g transform="translate(0.000000,454.000000) scale(0.100000,-0.100000)"
fill="#000000" stroke="none">
<path d="M3317 3614 c-1 -1 -35 -4 -75 -8 -320 -27 -530 -195 -635 -506 -17
-51 -54 -222 -62 -290 -3 -25 -8 -61 -11 -80 -2 -19 -6 -147 -8 -285 -3 -254
1 -339 29 -535 16 -107 55 -244 98 -340 44 -98 144 -223 216 -270 13 -8 33
-22 45 -31 26 -20 186 -82 193 -75 3 3 17 0 31 -5 43 -16 111 -22 252 -22 180
0 250 9 402 49 51 14 99 26 106 26 6 1 12 5 12 10 0 4 5 7 12 6 8 -2 12 22 13
82 1 105 -2 123 -26 149 -16 17 -29 19 -101 16 -46 -2 -94 -6 -108 -9 -14 -4
-51 -8 -82 -10 -31 -2 -61 -6 -65 -8 -12 -6 -170 -2 -233 6 -57 7 -137 31
-155 46 -5 4 -13 8 -16 7 -14 -4 -74 51 -116 105 -24 32 -41 58 -38 58 3 0 -1
12 -9 28 -27 49 -56 150 -59 210 0 6 -3 12 -7 12 -3 0 -6 10 -7 23 0 12 -4 51
-7 87 -4 36 -9 90 -12 120 -5 70 -5 387 1 465 5 68 16 173 20 195 44 217 93
310 206 393 38 27 157 65 197 62 12 -1 22 1 22 5 0 10 75 7 82 -4 5 -8 8 -7 8
1 0 8 19 11 65 9 36 -2 68 -6 71 -9 3 -3 18 -1 34 3 16 4 31 6 34 2 3 -3 27
-6 53 -8 47 -3 92 -7 183 -19 l46 -5 -1 104 c-1 118 -11 142 -70 170 -87 41
-223 63 -433 70 -51 1 -93 1 -95 0z"/>
<path d="M1215 3545 c-134 -325 -290 -787 -379 -1125 -70 -266 -88 -339 -117
-466 -17 -77 -33 -148 -35 -159 -1 -11 -10 -54 -19 -95 -9 -41 -18 -86 -20
-100 -2 -14 -4 -25 -5 -25 -1 0 -3 -11 -6 -25 -2 -14 -8 -47 -14 -75 -16 -83
-20 -107 -26 -171 -6 -57 -4 -62 19 -81 17 -13 43 -20 83 -22 32 -1 61 -4 65
-7 4 -2 10 -1 13 4 3 4 30 5 61 2 31 -3 58 -3 61 1 3 5 11 6 19 2 10 -3 15 1
16 13 0 11 2 26 4 34 2 8 15 85 29 170 13 85 34 205 46 265 12 61 24 125 27
143 3 17 8 32 12 33 40 6 121 2 121 -6 0 -7 3 -6 8 0 9 13 155 13 164 0 5 -7
8 -7 8 0 0 6 56 10 147 10 87 0 151 -4 155 -10 5 -7 8 -7 8 0 0 8 70 11 137 6
12 -1 21 -33 38 -136 2 -11 6 -31 9 -45 3 -14 8 -38 11 -55 2 -16 12 -70 20
-120 9 -49 18 -101 19 -115 11 -83 29 -147 46 -165 16 -16 38 -21 106 -25 47
-3 88 -3 90 -1 2 2 37 3 78 2 l75 -2 -5 25 c-2 14 -6 38 -9 53 -3 16 -8 44
-11 63 -2 19 -11 71 -19 115 -8 44 -17 96 -20 115 -3 19 -8 42 -10 50 -2 8 -7
29 -10 45 -35 202 -110 523 -187 800 -27 99 -51 185 -52 190 -22 81 -112 367
-127 400 -4 11 -17 48 -28 82 -12 33 -26 74 -32 90 -18 45 -26 64 -49 128 -25
67 -29 79 -60 152 -22 49 -59 81 -81 68 -5 -4 -9 -2 -9 4 0 7 -8 7 -23 2 -13
-5 -30 -5 -37 -1 -8 5 -21 5 -30 0 -9 -5 -22 -5 -30 0 -8 5 -21 5 -30 0 -9 -5
-22 -5 -30 0 -8 5 -21 5 -31 0 -9 -5 -19 -7 -23 -3 -3 3 -30 6 -60 7 -55 1
-55 1 -71 -39z m250 -375 c2 -8 12 -39 24 -69 11 -30 19 -57 16 -59 -2 -3 1
-14 7 -26 7 -11 13 -23 13 -26 1 -7 25 -82 32 -100 8 -19 11 -30 17 -57 2 -12
10 -32 17 -45 7 -13 12 -25 12 -28 -1 -6 2 -16 17 -68 8 -23 13 -49 13 -57 0
-8 5 -15 10 -15 6 0 8 -3 4 -6 -3 -3 2 -29 10 -57 9 -29 16 -58 16 -64 0 -7 5
-13 10 -13 6 0 8 -2 5 -5 -3 -3 3 -38 14 -78 11 -40 21 -79 23 -87 2 -8 4 -15
5 -15 1 0 3 -9 5 -19 2 -11 7 -31 11 -45 4 -14 6 -30 6 -34 -1 -4 2 -17 8 -27
8 -15 7 -20 -2 -21 -54 -4 -652 -3 -658 1 -5 3 14 91 41 195 27 105 51 198 54
207 6 26 84 285 105 348 10 30 42 129 70 219 l53 165 19 -50 c11 -27 21 -56
23 -64z"/>
</g>
</svg>
